<svg width="80" height="80" viewBox="0 0 80 80" fill="none" xmlns="http://www.w3.org/2000/svg">
<path d="M76 15.3846H61.3333V10.7692C61.3275 4.82442 57.1522 0.00673077 52 0H28C22.8478 0.00673077 18.6725 4.82442 18.6667 10.7692V15.3846H4C1.79083 15.3846 0 17.451 0 20V50.7692C0.007 52.7181 1.07417 54.4519 2.66667 55.1015V75.3846C2.66667 77.9337 4.4575 80 6.66667 80H73.3333C75.5425 80 77.3333 77.9337 77.3333 75.3846V55.1015C78.9258 54.4519 79.993 52.7181 80 50.7692V20C80 17.451 78.2092 15.3846 76 15.3846ZM21.3333 10.7692C21.3377 6.52308 24.32 3.08192 28 3.07692H52C55.68 3.08192 58.6623 6.52308 58.6667 10.7692V15.3846H55.9467L56 10.7692C55.9957 8.22231 54.2073 6.15885 52 6.15385H27.9507C25.7433 6.15885 23.955 8.22231 23.9507 10.7692V10.7846L23.9867 15.3846H21.3333V10.7692ZM53.3333 10.7477L53.28 15.3846H26.6533L26.612 10.7692C26.612 9.91962 27.209 9.23077 27.9453 9.23077H52C52.7292 9.23077 53.3232 9.90635 53.3333 10.7477ZM74.6667 75.3846C74.6667 76.2342 74.0697 76.9231 73.3333 76.9231H6.66667C5.93033 76.9231 5.33333 76.2342 5.33333 75.3846V55.3846H14.6667V60C14.6667 60.8496 15.2637 61.5385 16 61.5385H21.3333C22.0697 61.5385 22.6667 60.8496 22.6667 60V55.3846H57.3333V60C57.3333 60.8496 57.9303 61.5385 58.6667 61.5385H64C64.7363 61.5385 65.3333 60.8496 65.3333 60V55.3846H74.6667V75.3846ZM17.3333 58.4615V50.7692C17.3327 50.3544 17.4808 49.9579 17.7427 49.6738C17.9852 49.3863 18.319 49.2262 18.6667 49.2308C19.403 49.2308 20 49.9196 20 50.7692V53.8462V58.4615H17.3333ZM60 58.4615V50.7692C60 49.9196 60.597 49.2308 61.3333 49.2308C61.693 49.2294 62.0372 49.3998 62.284 49.7015C62.5313 49.9833 62.6693 50.3683 62.6667 50.7692V53.8462V58.4615H60ZM77.3333 50.7692C77.3333 51.6188 76.7363 52.3077 76 52.3077H65.3333V50.7692C65.3238 48.2248 63.5385 46.1648 61.3333 46.1538C59.1242 46.1538 57.3333 48.2202 57.3333 50.7692V52.3077H22.6667V50.7692C22.6667 48.2202 20.8758 46.1538 18.6667 46.1538C16.4627 46.1681 14.679 48.2262 14.6667 50.7692V52.3077H4C3.26367 52.3077 2.66667 51.6188 2.66667 50.7692V20C2.66667 19.1504 3.26367 18.4615 4 18.4615H76C76.7363 18.4615 77.3333 19.1504 77.3333 20V50.7692Z" fill="#FF6744"/>
</svg>
