<svg width="277" height="241" viewBox="0 0 277 241" fill="none" xmlns="http://www.w3.org/2000/svg">
<path fill-rule="evenodd" clip-rule="evenodd" d="M111.773 0.403965C121.869 -0.853899 131.847 2.71126 141.8 4.82185C170.594 10.9277 200.52 4.88093 229.89 6.8208C244.425 7.7808 260.053 11.4152 269.248 22.713C275.647 30.5757 277.942 41.6044 275.211 51.3671C270.054 69.7986 250.476 79.3071 235.26 90.9166C206.223 113.071 189.669 148.213 181.223 183.746C179.377 191.517 177.84 199.44 174.524 206.706C166.817 223.595 149.861 235.199 131.723 239.154C113.586 243.109 94.4633 240.097 77.0773 233.59C55.7684 225.614 36.4479 212.384 21.3067 195.401C13.6338 186.794 6.93847 177.072 3.41639 166.093C-0.105668 155.114 -0.211283 142.739 4.82032 132.365C12.3973 116.742 29.6463 108.44 40.7205 95.0674C45.6484 89.1166 49.2906 82.2273 52.8447 75.3671C58.1179 65.1886 63.2779 54.9515 68.3236 44.6584C73.0787 34.9581 77.8014 25.0989 84.7035 16.7883C91.6056 8.47762 101.052 1.73953 111.773 0.403965Z" fill="#FE573F"/>
</svg>
