<svg width="297" height="238" viewBox="0 0 297 238" fill="none" xmlns="http://www.w3.org/2000/svg">
<path fill-rule="evenodd" clip-rule="evenodd" d="M151.897 237.233C141.786 236.101 132.916 230.306 123.73 225.931C97.1548 213.274 66.6448 212.172 38.5375 203.432C24.6279 199.107 10.2794 191.926 3.97467 178.794C-0.413105 169.656 -0.0712351 158.396 4.86289 149.54C14.1783 132.821 35.4344 128.143 52.9396 120.405C86.3447 105.637 110.641 75.3284 127.145 42.7464C130.754 35.6216 134.097 28.2754 139.017 21.9838C150.452 7.35978 169.648 0.0327005 188.208 0.418768C206.768 0.804879 224.659 8.19599 240.047 18.5808C258.907 31.3088 274.607 48.6815 285.367 68.7291C290.82 78.8885 295.062 89.9048 295.925 101.403C296.787 112.901 294.003 124.958 286.689 133.872C275.676 147.295 256.966 151.343 243.077 161.763C236.896 166.399 231.747 172.249 226.69 178.09C219.188 186.757 211.781 195.508 204.473 204.339C197.586 212.662 190.693 221.147 182.042 227.618C173.391 234.088 162.633 238.436 151.897 237.233Z" fill="#5FAFEF"/>
</svg>
