<svg width="80" height="80" viewBox="0 0 80 80" fill="none" xmlns="http://www.w3.org/2000/svg">
<path d="M71.3043 27.366C71.3043 12.2522 57.2889 0 40 0C22.7111 0 8.69565 12.2522 8.69565 27.366C4.22609 27.8525 0 30.4067 0 36.336V50.6271C0 57.3166 5.35652 59.7491 10.4348 59.7491H15.4783C16.4387 59.7491 17.2174 59.0684 17.2174 58.2288V28.7951C17.2174 27.9555 16.4387 27.2748 15.4783 27.2748H12.1739C12.1739 13.8404 24.6322 2.94945 40 2.94945C55.3678 2.94945 67.8261 13.8404 67.8261 27.2748H64.5217C63.5613 27.2748 62.7826 27.9555 62.7826 28.7951V58.1832C62.7826 59.0228 63.5613 59.7035 64.5217 59.7035H67.8261C67.3391 70.1482 61.6 72.596 50.1391 73.0369V72.0182C50.1391 70.3388 48.582 68.9776 46.6609 68.9776H35.7217C33.8007 68.9776 32.2435 70.3388 32.2435 72.0182V76.9593C32.2435 78.6387 33.8007 80 35.7217 80H46.6957C48.6167 80 50.1739 78.6387 50.1739 76.9593V76.0775C61.2 75.6366 70.7304 73.645 71.3043 59.6123C75.7739 59.1258 80 56.5716 80 50.6423V36.3512C80 30.3915 75.7913 27.8525 71.3043 27.366ZM13.7391 30.209V56.6629H10.3478C7.77391 56.6629 3.3913 55.8723 3.3913 50.5815V36.2904C3.3913 31.0452 7.72174 30.209 10.3478 30.209H13.7391ZM46.6957 74.6636V76.9745H35.7217V72.0334H46.6957V74.6636ZM76.5217 50.6271C76.5217 55.8723 72.1913 56.7085 69.5652 56.7085H66.2609V30.3155H69.6522C72.2261 30.3155 76.6087 31.106 76.6087 36.3968L76.5217 50.6271Z" fill="#FF6744"/>
</svg>
