<svg width="80" height="80" viewBox="0 0 80 80" fill="none" xmlns="http://www.w3.org/2000/svg">
<g clip-path="url(#clip0_17_68)">
<path d="M40 0C34.8453 0 30.6666 4.17867 30.6666 9.33333C30.6725 14.4855 34.8478 18.6608 40 18.6667C45.1546 18.6667 49.3333 14.488 49.3333 9.33333C49.3333 4.17867 45.1546 0 40 0ZM40 16C36.3181 16 33.3333 13.0152 33.3333 9.33333C33.3376 5.65333 36.32 2.671 40 2.66667C43.6818 2.66667 46.6666 5.6515 46.6666 9.33333C46.6666 13.0152 43.6818 16 40 16Z" fill="#FF6744"/>
<path d="M44 20H36C29.3757 20.0073 24.0073 25.3757 24 32V54.6667H29.3333V80H32V49.3333H29.3333V52H26.6667V32C26.6725 26.8478 30.8478 22.6725 36 22.6667H44C49.1522 22.6725 53.3275 26.8478 53.3333 32V52H50.6667V49.3333H48V80H50.6667V54.6667H56V32C55.9927 25.3757 50.6243 20.0073 44 20Z" fill="#FF6744"/>
<path d="M41.3333 54.6665H38.6666V79.9998H41.3333V54.6665Z" fill="#FF6744"/>
<path d="M66.6666 13.3335C62.2483 13.3335 58.6666 16.9152 58.6666 21.3335C58.671 25.75 62.2501 29.3292 66.6666 29.3335C71.085 29.3335 74.6666 25.7518 74.6666 21.3335C74.6666 16.9152 71.085 13.3335 66.6666 13.3335ZM66.6666 26.6668C63.7211 26.6668 61.3333 24.279 61.3333 21.3335C61.3333 18.388 63.7211 16.0002 66.6666 16.0002C69.6121 16.0002 72 18.388 72 21.3335C72 24.279 69.6121 26.6668 66.6666 26.6668Z" fill="#FF6744"/>
<path d="M70.6666 30.6667H58.6666V33.3334H70.6666C74.3466 33.3377 77.329 36.3201 77.3333 40.0001V57.3334H74.6666V54.6668H72V80.0001H74.6666V60.0001H80V40.0001C79.9941 34.8479 75.8188 30.6726 70.6666 30.6667Z" fill="#FF6744"/>
<path d="M58.6666 54.6665V57.3332H53.3333V59.9998H58.6666V79.9998H61.3332V54.6665H58.6666Z" fill="#FF6744"/>
<path d="M68 60H65.3334V80H68V60Z" fill="#FF6744"/>
<path d="M13.3334 13.3335C8.91504 13.3335 5.33337 16.9152 5.33337 21.3335C5.33771 25.75 8.91687 29.3292 13.3334 29.3335C17.7517 29.3335 21.3334 25.7518 21.3334 21.3335C21.3334 16.9152 17.7517 13.3335 13.3334 13.3335ZM13.3334 26.6668C10.3879 26.6668 8.00004 24.279 8.00004 21.3335C8.00004 18.388 10.3879 16.0002 13.3334 16.0002C16.2789 16.0002 18.6667 18.388 18.6667 21.3335C18.6667 24.279 16.2789 26.6668 13.3334 26.6668Z" fill="#FF6744"/>
<path d="M9.33333 30.6667C4.18117 30.6726 0.00583333 34.8479 0 40.0001V60.0001H5.33333V80.0001H8V54.6668H5.33333V57.3334H2.66667V40.0001C2.671 36.3201 5.65333 33.3377 9.33333 33.3334H21.3333V30.6667H9.33333Z" fill="#FF6744"/>
<path d="M21.3333 57.3332V54.6665H18.6666V79.9998H21.3333V59.9998H26.6666V57.3332H21.3333Z" fill="#FF6744"/>
<path d="M14.6667 60H12V80H14.6667V60Z" fill="#FF6744"/>
</g>
<defs>
<clipPath id="clip0_17_68">
<rect width="80" height="80" fill="white"/>
</clipPath>
</defs>
</svg>
